<svg version="1.1" id="Layer_1" xmlns="http://www.w3.org/2000/svg" xmlns:xlink="http://www.w3.org/1999/xlink" x="0px" y="0px"
	 width="100%" viewBox="0 0 496 496" enable-background="new 0 0 496 496" xml:space="preserve">
<path fill="#000000" opacity="1.000000" stroke="none" 
	d="
M199.454102,497.000000 
	C190.687180,491.481781 182.257843,486.176697 174.465637,479.859192 
	C164.388550,471.689209 155.780823,462.251526 148.862198,451.397522 
	C139.651642,436.947845 131.322037,421.930267 121.936523,407.600372 
	C114.467094,396.196045 106.215828,385.284576 98.316444,374.158966 
	C88.399788,360.192169 75.452843,348.648315 66.934052,333.591064 
	C57.054607,316.128784 49.804783,298.099640 49.623867,277.542358 
	C49.385689,250.478989 56.919739,225.736389 72.156250,203.812500 
	C84.018387,186.744003 97.506027,170.705124 115.458572,159.324799 
	C126.391838,152.394058 137.987885,146.768417 151.112823,146.160690 
	C161.761993,145.667572 166.098328,149.635544 165.710464,162.327454 
	C165.462692,170.435226 161.705170,177.737595 159.785828,185.469727 
	C156.384140,199.173523 157.155136,212.921555 157.956467,226.683823 
	C159.020203,244.952087 158.926849,263.188263 157.827148,281.438599 
	C157.127365,293.052277 157.211197,304.732635 155.311859,316.246216 
	C152.148331,335.423157 149.006989,354.607941 145.455231,373.714813 
	C143.781204,382.720398 144.652130,384.979584 153.413162,386.630951 
	C166.809860,389.156067 180.264709,391.213501 193.975296,391.090179 
	C210.902512,390.937866 227.419174,388.601624 243.222290,382.304199 
	C248.496338,380.202515 253.388947,377.341095 258.040253,374.068787 
	C262.707397,370.785339 262.557617,369.751312 257.691681,367.044098 
	C242.466156,358.573273 228.231857,348.510101 221.702209,331.742462 
	C218.065201,322.402893 211.747253,315.005005 207.474899,306.274048 
	C203.448242,298.045258 203.952133,289.378448 205.645813,280.874542 
	C206.925064,274.451355 210.630112,272.911285 216.340240,276.210846 
	C220.494003,278.611115 221.715958,277.105591 223.121613,273.434204 
	C226.815002,263.787537 230.687424,254.188263 237.172104,245.962585 
	C238.760300,243.947983 238.870392,241.681046 238.743057,239.331970 
	C238.358994,232.246735 238.727371,225.342621 242.783035,219.124390 
	C244.431900,216.596313 243.487961,214.960999 240.850342,213.607391 
	C237.829956,212.057358 234.898392,210.676987 231.385895,211.049713 
	C226.190125,211.601044 222.059296,208.817032 217.963730,206.336319 
	C211.669174,202.523666 205.984375,197.904984 201.634781,191.865967 
	C199.363144,188.711990 197.053238,186.968384 192.526169,187.562195 
	C187.901505,188.168808 182.986374,187.148819 178.278381,186.362244 
	C173.829956,185.619034 173.213684,183.714050 176.016800,180.383865 
	C178.336548,177.627914 180.050217,174.948776 179.443527,170.957870 
	C178.951370,167.720383 181.550156,165.428055 183.788422,163.465836 
	C185.867218,161.643417 186.584549,160.037430 186.035904,157.044388 
	C184.634399,149.398651 183.741241,141.646515 184.144028,133.808990 
	C184.288788,130.992249 183.626740,128.652679 180.143967,127.938293 
	C175.808548,127.048988 173.605286,124.245895 170.878540,120.384056 
	C166.308243,113.911278 164.791382,107.498032 164.590530,100.127495 
	C164.558426,98.949707 163.464798,97.781715 162.802765,96.643600 
	C160.125839,92.041580 158.802444,87.219788 160.085785,82.091820 
	C161.107407,81.343559 161.965668,81.429024 162.589890,82.041321 
	C166.059845,85.444962 169.537079,88.563690 174.605499,84.641670 
	C174.916855,84.400734 175.579971,84.567413 176.072647,84.614792 
	C182.645676,85.246887 182.819916,85.244370 182.612900,78.842697 
	C182.403275,72.360504 183.226807,66.221466 186.861450,60.686489 
	C188.388809,58.360584 187.779892,56.329613 186.144638,54.302731 
	C183.371918,50.865982 182.369034,47.290276 185.597595,43.479855 
	C186.096298,42.891273 186.709976,41.621723 186.455948,41.288933 
	C181.590836,34.916031 188.333099,28.281605 185.884262,21.688429 
	C184.627197,18.303902 186.084793,14.413136 187.795349,11.109800 
	C189.022186,8.740591 190.688141,7.165092 192.978622,10.305004 
	C193.977264,11.674008 195.311768,13.265261 197.088943,12.058082 
	C200.733765,9.582287 202.771637,11.504757 205.041870,14.142501 
	C206.858948,16.253714 208.906036,18.092428 211.838058,18.983219 
	C215.156937,19.991541 215.916107,23.327196 217.359695,26.189920 
	C220.365479,32.150597 222.407196,38.888554 230.877945,40.286098 
	C238.677704,41.572933 242.677933,48.105225 245.571350,54.765297 
	C249.253433,63.240749 247.492615,62.791115 258.695587,61.642082 
	C266.216309,60.870712 273.572144,60.215458 280.952362,62.270416 
	C284.279083,63.196712 285.506439,61.705448 285.478119,58.407112 
	C285.352112,43.737503 293.598450,34.922398 311.786652,36.627949 
	C332.561798,38.576077 346.960876,50.311615 356.927917,68.019669 
	C358.270203,70.404465 359.804840,71.094933 362.172852,70.322754 
	C367.428802,68.608856 372.567017,66.667503 376.252594,62.203148 
	C377.962219,60.132309 379.934998,58.349037 382.308533,57.052460 
	C383.485046,56.409763 385.090363,55.352730 386.027527,56.213123 
	C390.629059,60.437683 393.030334,57.291832 395.917480,53.934284 
	C397.784668,51.762913 400.828979,50.320225 403.595825,51.638062 
	C406.763245,53.146660 408.969574,52.071507 411.435364,50.499382 
	C414.421600,48.595428 417.311401,46.939461 421.135529,49.087032 
	C423.181030,50.235752 425.178253,48.162334 427.065979,47.210556 
	C432.564453,44.438206 434.598846,44.950916 437.492767,50.250713 
	C438.516205,52.124996 439.843506,51.517227 441.327240,51.299778 
	C445.993988,50.615845 448.252106,52.927628 446.022522,56.752029 
	C442.571228,62.672131 438.841492,68.443115 435.285339,74.311737 
	C432.802612,78.408913 427.801361,80.246567 423.243744,81.969727 
	C420.507263,83.004356 417.955597,84.011406 418.120026,87.746391 
	C418.163422,88.732323 417.384277,90.257202 416.543884,90.698318 
	C410.767151,93.730423 406.773590,99.180359 400.927765,102.058578 
	C399.426361,102.797798 397.483765,103.227547 396.999756,104.903831 
	C395.138153,111.351395 389.325989,112.530487 384.377441,112.956955 
	C378.413330,113.470955 373.999084,116.680733 368.991974,118.887093 
	C366.634338,119.925972 366.978027,122.315285 367.771881,124.126816 
	C368.793030,126.457031 370.691711,125.819946 372.350983,124.664154 
	C373.579681,123.808273 374.726685,122.834770 375.906555,121.909203 
	C379.099487,119.404427 382.129517,119.912956 384.860352,122.590721 
	C386.876801,124.568008 388.570282,124.579277 390.964325,122.956886 
	C398.304382,117.982712 399.604156,118.142517 406.054871,124.223701 
	C407.594574,125.675156 408.688843,124.872246 410.041260,124.203758 
	C413.849792,122.321190 418.011444,122.067459 422.140015,121.714783 
	C425.227295,121.451065 428.458038,122.633728 429.535431,125.053345 
	C432.597107,131.929169 438.328888,130.183640 443.130341,129.413010 
	C447.956268,128.638474 450.482513,128.314987 448.606628,134.342133 
	C447.899475,136.614120 450.147919,136.964371 451.643646,137.496552 
	C455.561462,138.890503 459.020050,140.544968 459.309570,145.515564 
	C459.423981,147.479645 461.365234,148.455368 462.743225,149.625214 
	C465.629547,152.075577 465.098938,154.216675 462.084015,155.894073 
	C453.364960,160.745010 444.355652,163.787766 434.091675,164.761185 
	C428.177277,165.322098 421.617554,165.329666 415.498810,168.334305 
	C411.612091,170.242905 405.747681,168.879425 400.909698,167.507797 
	C398.657104,166.869171 396.470215,165.881119 394.341797,167.779922 
	C394.111420,167.985458 393.646942,168.209244 393.433136,168.112045 
	C386.630859,165.019623 380.634827,171.249969 373.971313,169.812958 
	C373.666260,169.747162 373.219757,170.337250 372.626465,170.780899 
	C374.194122,174.170425 377.738312,173.505157 380.263580,174.565155 
	C387.989075,177.807907 388.040894,177.684464 386.848999,185.973602 
	C390.034119,187.500504 393.292999,189.074005 396.561768,190.626526 
	C399.586395,192.063065 400.981750,194.252136 399.347534,197.464981 
	C398.076691,199.963516 398.583527,201.518112 400.665771,203.481262 
	C403.670258,206.313858 406.105499,209.754486 408.745056,212.967346 
	C409.596588,214.003891 410.784454,215.534348 409.994873,216.539368 
	C406.637756,220.812408 410.200134,223.490952 411.927765,226.641876 
	C413.402740,229.332062 414.475525,231.951447 410.385773,233.441803 
	C408.335876,234.188812 408.664062,235.777390 408.818054,237.573853 
	C409.217010,242.228043 406.121033,244.602478 402.462158,241.907593 
	C395.913177,237.084000 387.258759,236.345383 381.392334,230.436569 
	C380.959503,230.000626 380.050842,229.444717 379.687683,229.619263 
	C372.174866,233.230408 369.949677,226.626816 367.114990,222.566177 
	C364.552795,218.895905 362.782776,214.822311 358.253052,213.052032 
	C357.532532,212.770462 356.793335,212.068359 356.446899,211.370117 
	C352.882141,204.185104 346.046753,199.016754 344.143066,190.747467 
	C342.988647,185.733017 340.573792,185.285706 336.036194,187.837799 
	C330.630402,190.878189 328.694763,195.053604 328.937531,201.312759 
	C329.464874,214.909561 333.392700,227.536118 339.148041,239.572968 
	C345.332245,252.506699 350.689331,265.531097 354.524719,279.490417 
	C359.081238,296.074463 361.999756,312.856995 364.863464,329.702911 
	C366.060577,336.744904 365.897522,343.964661 366.346680,351.102722 
	C368.005096,377.458832 364.686493,403.305237 357.335907,428.456360 
	C349.165497,456.412567 333.516205,479.267670 307.377777,493.775269 
	C305.494629,494.820496 303.491577,495.649811 301.272125,496.789734 
	C297.969391,497.000000 294.938812,497.000000 291.649628,496.704895 
	C292.727631,495.754883 294.049042,495.066711 295.403076,494.450134 
	C310.134552,487.742035 323.687378,479.365448 333.248383,465.918488 
	C343.240906,451.864563 351.127045,436.821442 355.156738,419.789948 
	C358.076752,407.448486 360.775757,395.039490 361.469818,382.463562 
	C362.792511,358.496674 361.881958,334.540405 357.483002,310.841003 
	C357.054413,308.531738 357.243805,305.921844 354.981995,303.750244 
	C352.749420,308.764740 352.442902,313.811890 351.616333,318.601715 
	C347.307343,343.571075 339.897278,367.367737 327.144684,389.419525 
	C314.086578,411.999573 297.891876,431.439941 274.580078,444.145721 
	C260.980316,451.558044 246.618866,457.144623 231.193390,458.192261 
	C200.778519,460.257904 174.044449,449.713348 149.692902,432.206390 
	C148.805283,431.568268 148.066956,430.414673 146.268219,431.386841 
	C147.204849,436.907806 149.980545,441.875610 152.719025,446.628845 
	C165.327972,468.514252 183.696777,484.158203 206.384659,494.927948 
	C207.409805,495.414581 208.657593,495.642273 209.000000,497.000000 
	C205.969406,497.000000 202.938812,497.000000 199.454102,497.000000 
M309.150482,365.792450 
	C305.467865,367.764374 301.647095,369.456116 297.582336,370.395599 
	C293.762695,371.278503 291.930389,373.313873 290.776001,377.243896 
	C285.266083,396.002197 275.015778,411.913300 258.873901,423.042969 
	C240.225662,435.900818 219.172318,439.796814 196.925934,435.563110 
	C183.697159,433.045502 170.746216,429.447693 158.975403,422.398712 
	C154.065903,419.458679 149.077225,416.608154 144.715439,413.497681 
	C143.146133,414.383362 143.327011,415.255127 143.316452,416.070374 
	C143.244629,421.617889 147.550446,424.446747 151.163773,426.959442 
	C180.508865,447.365906 211.499893,460.730774 248.420258,449.858856 
	C263.577728,445.395447 276.986725,438.158112 289.201996,428.396362 
	C308.334198,413.107025 320.638824,392.775269 330.413391,370.895813 
	C337.600159,354.808929 342.614746,337.945831 346.409119,320.616394 
	C351.866150,295.693115 351.246216,272.036804 338.675201,249.044983 
	C331.582153,236.072037 326.338165,222.160385 324.287567,207.240372 
	C323.853668,204.083298 324.765747,200.615372 322.583740,196.938171 
	C309.852356,203.913483 296.440094,208.797028 281.964355,213.574463 
	C286.693329,216.476547 291.631927,216.999664 293.841034,221.610245 
	C287.024261,218.461258 279.824921,217.660934 272.549835,217.240891 
	C268.757965,217.021957 267.843018,218.676971 269.047241,222.172836 
	C271.451111,229.151459 274.305054,235.823257 279.557281,241.241165 
	C282.143860,243.909348 284.500549,246.800400 286.849152,249.463455 
	C286.184509,250.746902 285.327301,250.945694 284.544250,250.584076 
	C276.154388,246.709656 272.139069,238.486526 266.553375,231.659668 
	C262.886871,233.738495 262.661102,239.569717 256.992493,239.228195 
	C259.148560,234.434723 261.405609,230.334473 262.862793,225.967361 
	C265.192596,218.984970 262.344971,215.518173 255.352570,216.127808 
	C254.195618,216.228668 253.022018,216.155243 251.856491,216.137680 
	C249.820114,216.107025 248.240570,216.990860 247.392151,218.787003 
	C244.401398,225.118637 241.739487,231.479156 243.102997,238.833359 
	C243.596786,241.496582 244.547562,244.650299 242.352768,247.010452 
	C234.402878,255.559235 230.958527,266.415253 226.578659,276.831818 
	C225.372543,279.700348 226.514450,284.066589 223.360092,285.338928 
	C219.652130,286.834534 218.112122,282.110260 215.292313,280.630341 
	C213.178207,279.520813 211.410324,278.538605 210.217941,281.760162 
	C206.264099,292.442627 210.663513,308.046997 219.674271,314.603668 
	C220.720474,315.364929 221.370956,316.174927 221.538574,317.368317 
	C222.489182,324.136871 225.746094,329.937195 229.137283,335.693176 
	C238.297745,351.241669 252.372635,361.020691 268.859375,366.609833 
	C283.936157,371.721069 298.724548,367.412262 312.740204,360.747864 
	C314.428345,359.945160 315.834137,358.371674 318.523651,358.392670 
	C316.248627,362.190063 312.979950,363.753265 309.150482,365.792450 
M309.433746,178.009048 
	C307.346527,176.349045 308.772888,175.987274 310.294434,175.822693 
	C313.921295,175.430374 317.571411,175.228577 321.185913,174.751221 
	C333.133209,173.173355 344.941803,171.158203 354.327057,162.584824 
	C355.460571,161.549377 357.378632,160.799973 355.813721,158.459625 
	C350.038818,160.025131 345.239349,165.083801 338.276306,164.013428 
	C339.544281,161.585678 341.613220,161.084381 343.254791,160.071594 
	C362.179718,148.395523 367.737640,128.002701 357.111938,108.579643 
	C356.158691,106.837128 356.406433,105.566170 357.001740,103.932449 
	C358.958038,98.563316 360.419037,92.899513 359.446350,87.295517 
	C356.393677,69.708725 348.005280,55.396870 331.932800,46.617710 
	C323.733734,42.139198 315.135620,38.654549 305.378204,39.310162 
	C296.332245,39.917973 290.152283,46.148754 289.133514,55.051434 
	C288.669556,59.105732 290.018585,63.252533 288.739807,67.012627 
	C286.781799,67.799950 285.374451,67.215286 283.945892,66.780724 
	C270.634125,62.731308 257.242126,63.975128 244.054108,66.961716 
	C232.718567,69.528793 222.548843,75.092651 213.567230,82.425171 
	C206.093018,88.527061 199.243118,95.363205 194.763199,104.130272 
	C191.482666,110.550209 192.647659,116.940422 197.713425,121.912216 
	C200.140442,124.294205 203.024658,125.874924 206.017715,127.361221 
	C219.989624,134.299438 227.520386,149.381409 224.706375,164.754852 
	C224.621857,165.216537 224.319641,165.638382 224.004715,166.329391 
	C220.767014,163.717316 218.356079,161.247910 214.817261,160.250214 
	C206.723846,157.968384 197.520706,159.745590 190.475952,153.157608 
	C190.877121,160.727127 191.692657,167.592453 199.365448,170.756958 
	C195.942184,179.000122 197.328094,182.053696 204.594833,182.048859 
	C202.890945,186.411987 203.862900,190.162750 207.120773,193.372406 
	C211.526123,197.712570 215.878387,202.600983 221.639938,204.620026 
	C231.249695,207.987564 241.167435,211.441376 251.195435,212.433426 
	C267.965698,214.092453 284.127716,209.334167 299.972382,204.069153 
	C301.652374,203.510910 303.631470,203.193115 303.991302,200.587997 
	C298.910034,196.460510 292.726288,193.181244 289.225677,186.012802 
	C316.236847,195.678345 333.506470,190.626694 336.815430,180.260895 
	C327.628876,181.505157 318.884094,179.733307 309.433746,178.009048 
M117.482079,391.976532 
	C123.999619,402.142303 130.517166,412.308075 137.034698,422.473816 
	C137.457611,422.249695 137.880539,422.025543 138.303452,421.801392 
	C138.373077,421.015839 138.601700,420.206604 138.488617,419.448303 
	C136.628754,406.975616 137.248215,394.410736 139.476120,382.210083 
	C143.055389,362.608917 146.228165,342.946136 149.608917,323.315521 
	C153.288315,301.950745 153.658676,280.306641 154.478470,258.755249 
	C155.051346,243.695175 153.533157,228.559875 153.070694,213.454437 
	C152.795807,204.475357 152.692337,195.527969 155.232376,186.713455 
	C157.529266,178.742767 159.470383,170.655777 161.218628,162.544708 
	C162.921860,154.642487 158.635162,149.818665 150.627441,150.397446 
	C143.570328,150.907486 136.973816,153.215515 130.582504,156.148453 
	C105.174072,167.808319 88.465248,188.810089 72.921463,210.761520 
	C65.192116,221.677124 61.100281,234.462357 57.550159,247.420441 
	C52.995430,264.045380 52.691238,280.730743 56.458614,297.258240 
	C59.726196,311.593140 66.358063,324.787018 74.370621,337.150696 
	C78.678383,343.797729 83.748253,349.873322 89.531738,355.867645 
	C90.362419,353.376343 89.166969,352.026428 88.500641,350.585907 
	C86.245483,345.710602 84.961853,340.533661 83.945427,335.315186 
	C79.980629,314.959473 81.339554,294.473419 84.151649,274.243164 
	C88.368973,243.903610 100.752022,216.528397 117.779091,191.243698 
	C120.112885,187.778076 122.712509,184.164566 126.879440,181.350891 
	C127.276741,184.129761 126.240700,185.498764 125.517311,186.941086 
	C121.934303,194.085083 117.258911,200.887619 114.933861,208.417343 
	C107.977966,230.944229 100.205383,253.295181 97.311646,276.910095 
	C95.828339,289.014923 94.538773,301.370514 95.813110,313.250916 
	C98.711006,340.267181 105.588089,366.507111 117.482079,391.976532 
M234.907425,429.425751 
	C242.235809,427.106323 249.446548,424.358948 255.724533,419.921326 
	C270.848083,409.230988 279.772980,394.004822 286.144653,377.030579 
	C286.667969,375.636536 286.751648,373.821503 285.237122,373.693359 
	C278.992096,373.165192 272.713745,373.011017 266.444519,372.824585 
	C265.934174,372.809418 265.372772,373.558929 264.881256,374.004059 
	C252.024506,385.645844 236.368744,391.050385 219.630966,393.154358 
	C195.226395,396.222107 170.826920,396.627655 146.928101,389.220306 
	C145.268097,388.705811 144.069336,388.705597 143.437561,390.689178 
	C141.466614,396.877228 144.020432,405.252625 149.051788,409.523773 
	C160.352829,419.117249 173.740921,424.716034 187.724487,428.542419 
	C202.952530,432.709290 218.559387,433.644073 234.907425,429.425751 
M412.473694,159.701599 
	C416.143677,161.297974 419.799103,162.989777 424.023804,162.091125 
	C423.718170,158.973022 419.287994,158.899323 420.678589,155.079453 
	C425.372833,154.651550 428.260864,159.139465 432.669556,159.802460 
	C437.119873,160.471710 441.232361,161.055191 445.532898,158.547150 
	C443.181549,155.182892 438.834412,155.557724 436.070801,151.191818 
	C444.160248,153.997391 451.168610,157.190384 458.444214,152.910004 
	C456.658722,148.197937 452.448334,150.022888 449.575897,148.667679 
	C450.546356,146.497986 453.505737,146.168533 453.492340,143.332397 
	C449.359406,138.019165 443.310455,142.100540 438.209381,141.362106 
	C438.839264,138.244232 442.184235,137.792374 442.090546,135.120102 
	C435.738831,130.707916 428.799469,139.222336 422.610229,134.600784 
	C422.417694,132.098602 425.211945,132.002106 425.088013,130.087860 
	C418.084351,124.503944 417.584747,124.515572 409.673309,130.415573 
	C407.752472,131.848038 402.601440,130.662109 401.727051,128.586060 
	C399.688354,123.745636 398.159851,123.223000 393.720367,125.848343 
	C386.588165,130.066040 385.731537,129.996933 379.596802,124.525597 
	C376.713226,126.789207 374.050629,129.580963 369.880646,129.771423 
	C368.420013,129.838150 368.302094,131.689453 368.257629,133.057297 
	C368.057831,139.204971 367.156586,145.240173 365.978394,151.288147 
	C364.551727,158.611176 369.797424,165.302277 376.260681,164.944977 
	C377.882111,160.854965 374.200653,157.862396 373.967010,153.787964 
	C378.578857,159.196823 383.175049,164.289688 390.757446,164.101471 
	C392.703461,160.690186 388.236237,158.285706 390.026154,154.553619 
	C393.290833,157.802338 395.444275,161.635620 399.776276,163.079956 
	C403.980682,164.481705 408.083557,165.352112 411.557190,164.965851 
	C413.898315,162.384750 408.704803,161.442093 412.473694,159.701599 
M409.126465,80.949776 
	C418.734406,81.448555 430.455902,76.081337 432.856293,69.916733 
	C429.134521,67.910683 425.611298,69.837173 421.706146,70.941574 
	C423.229950,64.505920 429.241211,68.078285 432.260986,65.218620 
	C435.409241,62.237236 440.360291,61.063713 441.741577,55.663536 
	C436.693420,54.827942 433.211670,58.059624 428.874298,58.715950 
	C429.698456,55.313156 432.711761,53.191185 432.256226,49.607693 
	C424.947388,50.494465 421.542023,56.894337 416.369873,61.371353 
	C415.697021,58.869305 416.451630,58.363346 416.987640,57.765526 
	C418.257965,56.348743 419.602570,54.774994 417.825012,53.035187 
	C416.261841,51.505188 414.570312,52.860928 413.353302,53.802135 
	C411.264801,55.417370 409.298462,57.253220 407.556122,59.238075 
	C405.188477,61.935173 403.767090,61.622398 402.923309,58.205463 
	C402.687927,57.252258 402.757446,56.174175 401.468384,55.613819 
	C398.608978,55.779099 397.598083,58.150627 396.389954,60.303341 
	C394.304413,64.019478 389.258820,65.044220 387.552887,63.356205 
	C383.408203,59.255135 381.720428,62.613148 380.382751,64.933945 
	C378.503235,68.194847 375.818695,69.505608 372.562561,70.499039 
	C369.863708,71.322441 367.267212,72.477966 364.576904,73.333916 
	C362.122864,74.114708 360.688629,75.731796 361.454041,78.167213 
	C364.141541,86.718414 363.553558,95.116241 361.396454,103.685249 
	C360.391449,107.677536 362.467194,109.378204 366.451935,108.461487 
	C368.143616,108.072304 369.331757,108.214287 371.036407,108.848206 
	C378.104858,111.476791 384.670227,108.995827 391.993835,106.545738 
	C388.414703,103.129082 384.510651,102.932037 381.091187,101.613396 
	C382.434723,99.157784 384.051514,100.398193 385.622650,100.539711 
	C391.880371,101.103378 399.052704,101.223740 402.705933,96.154839 
	C405.095062,92.839821 407.408234,91.323547 410.690460,90.081718 
	C411.909454,89.620506 413.281525,89.212944 413.410095,87.488518 
	C412.022736,83.973000 407.861511,86.208809 405.828094,84.061737 
	C406.068207,82.334938 407.514252,81.994171 409.126465,80.949776 
M352.454163,172.916748 
	C349.565033,176.051697 346.675903,179.186646 343.936554,182.159042 
	C344.611633,184.846954 347.248779,183.826065 348.523926,185.286636 
	C347.522400,188.859482 348.470825,192.056976 350.520416,195.013809 
	C355.799988,193.125656 355.919403,193.347244 355.348358,198.909119 
	C354.889893,203.374237 357.017609,206.701050 360.238831,209.065277 
	C362.625214,208.558411 361.950867,205.738541 364.019867,205.623825 
	C366.420074,206.599609 367.224854,208.360184 367.100250,210.804337 
	C366.925751,214.227661 367.886719,217.437241 369.774994,220.246552 
	C371.119019,222.246140 372.111572,225.303604 374.889557,225.207932 
	C377.892395,225.104492 377.119415,221.599823 378.288818,219.757904 
	C378.434143,219.529037 378.831421,219.460144 379.515900,219.111191 
	C382.761353,223.146851 383.620514,229.459534 389.315430,231.351288 
	C392.028290,229.321411 388.722961,227.036896 390.947205,224.176956 
	C392.778931,231.470505 396.811249,236.182999 403.489380,238.180252 
	C406.027588,235.610931 402.794373,233.267426 403.685242,230.941193 
	C408.350677,228.280029 408.439453,227.470245 405.358337,223.152573 
	C403.189636,220.113449 400.000214,218.645950 396.066406,217.058563 
	C398.527954,215.047195 401.861053,216.277878 403.155609,213.258087 
	C401.275787,206.846588 395.923035,204.039017 389.725769,202.487808 
	C390.845490,199.993591 392.728851,199.803055 393.970520,198.771088 
	C395.435608,197.553467 396.452271,196.016586 394.619537,194.672256 
	C391.987396,192.741577 389.440460,190.158066 385.828003,190.428238 
	C382.031403,190.712219 380.130402,188.729706 378.741180,185.891144 
	C379.812683,183.645950 383.007324,183.839035 383.145752,180.809723 
	C379.955048,178.933502 376.758331,176.903503 372.668701,177.759552 
	C370.700348,178.171570 369.068787,177.610931 369.021149,175.560364 
	C368.920837,171.241287 366.122528,169.947479 362.664124,169.166306 
	C358.779358,168.288834 355.059845,167.950974 352.454163,172.916748 
M204.803223,69.653809 
	C204.926346,69.344841 205.029785,69.026245 205.175522,68.728340 
	C208.352554,62.233608 213.830383,58.505283 220.682602,57.468430 
	C225.994644,56.664627 228.857910,60.804543 231.512802,64.843552 
	C233.108414,67.271027 243.263168,65.598106 244.436371,62.851486 
	C244.731354,62.160866 244.628616,61.221619 244.488434,60.435917 
	C242.953827,51.834385 235.253922,44.187351 226.687973,43.374855 
	C222.088043,42.938545 217.363007,43.522438 212.956329,45.067684 
	C193.854645,51.765877 183.699707,67.475883 185.537323,87.529549 
	C185.916214,91.664253 186.839035,95.769592 189.827011,99.016541 
	C190.890869,100.172623 192.680801,101.591583 193.489685,99.878525 
	C196.742462,92.989731 205.759094,88.912903 203.412064,79.215744 
	C202.721634,76.363091 203.485458,73.261086 204.803223,69.653809 
M202.403503,16.499495 
	C199.412125,14.744636 199.544876,16.929388 199.379501,18.853945 
	C199.256912,20.280626 201.032181,22.078972 198.352036,23.259407 
	C197.034775,19.479883 194.593857,16.881405 190.520401,15.717918 
	C187.277832,22.411453 191.141632,27.239290 194.406418,32.146107 
	C192.383224,33.410568 189.398209,30.976543 188.528046,34.028381 
	C187.803497,36.569508 189.576233,38.403873 191.141281,40.159935 
	C192.140778,41.281403 193.171646,42.329887 194.644989,42.879417 
	C195.909927,43.351204 197.271042,44.031887 196.982681,45.663589 
	C196.635391,47.628948 194.749466,47.286251 193.370239,47.634991 
	C191.529099,48.100533 189.459732,46.319935 187.735214,48.134964 
	C189.626328,53.434155 192.401443,55.516998 194.513657,53.084858 
	C199.294098,47.580318 205.762558,45.034710 211.952377,41.912975 
	C213.172592,41.297573 214.913467,40.151131 214.262924,39.091175 
	C212.125626,35.608799 214.145981,31.915310 213.186966,28.485659 
	C212.634079,26.508415 212.415436,24.117123 209.890121,23.679113 
	C207.863159,24.144497 208.566803,26.962357 206.163528,27.118279 
	C205.556198,23.590452 205.445480,19.852039 202.403503,16.499495 
M102.767654,225.261276 
	C96.857452,240.293564 92.251160,255.707977 89.194275,271.576477 
	C86.079636,287.744781 86.983757,304.086761 87.262566,320.380188 
	C87.464378,332.173737 97.041122,361.674286 102.204407,365.386230 
	C83.397308,315.387665 89.344681,266.293335 108.113426,217.667358 
	C107.626900,217.619675 107.140381,217.571976 106.653854,217.524277 
	C105.477219,219.884766 104.300575,222.245239 102.767654,225.261276 
M171.402039,108.251640 
	C173.064560,109.229385 175.312469,109.124733 176.522415,110.905373 
	C176.685562,112.726234 174.117950,113.472328 174.928543,115.413063 
	C181.251053,118.227867 186.572220,116.065353 188.811966,110.170670 
	C190.112656,106.747383 189.748215,103.962303 187.038086,101.645172 
	C185.390320,100.236343 184.904968,98.489952 184.382217,96.519875 
	C183.245178,92.234612 180.596329,89.479736 175.700562,88.910187 
	C175.404816,90.808311 175.184418,92.222908 174.975189,93.565804 
	C171.096420,93.937561 168.570984,89.800568 164.427475,90.972572 
	C165.379990,95.603355 168.881485,97.968521 172.128433,100.876968 
	C169.417969,102.999146 166.712845,105.054016 171.402039,108.251640 
M197.158447,141.158279 
	C198.143692,143.535492 199.669266,145.472977 201.968765,146.670517 
	C206.064957,148.803726 210.675156,149.642548 214.685165,152.196930 
	C216.960831,153.646500 217.921158,151.271255 217.350494,149.236328 
	C215.469620,142.529236 212.690399,136.343246 205.620895,133.542389 
	C202.654968,132.367340 199.321762,129.607056 196.387527,132.092789 
	C193.721069,134.351685 196.537735,137.633209 197.158447,141.158279 
M192.958099,178.184097 
	C192.228668,173.520035 188.998749,170.032806 187.828110,165.680664 
	C185.188873,166.235413 183.835083,168.077652 184.522873,169.345734 
	C186.568939,173.118073 183.778351,175.145325 182.308273,177.740219 
	C181.536819,179.101990 179.982147,180.260712 180.967682,182.488495 
	C182.763092,183.070267 184.722717,182.805222 186.634048,182.341232 
	C188.021133,182.004547 189.332672,180.684662 190.782364,181.953613 
	C191.762543,182.811584 192.574280,184.334991 193.984619,182.861343 
	C195.437759,181.343002 193.698441,180.172012 192.958099,178.184097 
M186.394470,119.075302 
	C186.092300,117.891212 185.386642,117.297966 184.287750,118.079102 
	C182.215378,119.552254 180.234467,121.154076 178.161606,122.743782 
	C183.669312,125.921608 184.672699,125.530594 186.394470,119.075302 
M216.959091,72.367966 
	C216.955688,72.533249 216.909454,72.713692 216.961060,72.859497 
	C217.011475,73.001915 217.192627,73.231773 217.263794,73.213882 
	C220.399368,72.426041 223.008270,70.854912 224.782700,67.995476 
	C221.856995,68.534798 219.256256,69.653091 216.959091,72.367966 
z"/>
<path fill="#000000" opacity="1.000000" stroke="none" 
	d="
M275.307922,299.795288 
	C268.935425,298.884277 269.517517,303.799500 269.532654,306.928009 
	C269.571198,314.899658 270.697968,322.805298 273.961761,330.234711 
	C274.344604,331.106140 274.611847,332.028290 275.204315,333.687897 
	C272.059326,332.813538 271.007721,330.743378 270.078644,328.842804 
	C265.275116,319.016449 263.664093,308.718933 265.927307,297.926117 
	C266.355133,295.885864 267.031494,294.077911 269.582581,293.895142 
	C275.980774,293.436798 284.954468,299.637726 287.315369,306.527008 
	C282.858368,304.913849 280.030090,300.975098 275.307922,299.795288 
z"/>
<path fill="#000000" opacity="1.000000" stroke="none" 
	d="
M332.421356,154.421173 
	C325.902374,161.526566 317.707306,163.640839 308.860626,164.380096 
	C296.431885,165.418716 283.989410,163.598816 271.532715,164.867081 
	C266.765076,165.352493 262.408539,167.940521 256.956390,167.328903 
	C257.307007,157.683929 261.264618,150.056488 268.028870,143.691681 
	C277.524628,134.756668 289.514252,131.490128 301.765991,128.719269 
	C310.365295,126.774429 318.863861,124.527023 326.494446,119.764839 
	C330.320953,117.376755 333.782227,114.664803 336.374664,110.806107 
	C345.199829,122.569206 345.402679,142.302048 332.421356,154.421173 
M311.309967,149.830032 
	C315.203094,145.601624 319.417175,141.603592 321.734772,136.086227 
	C308.240723,131.202179 275.211578,142.023438 271.103516,156.679779 
	C277.093201,154.922516 283.023010,155.242569 288.889130,156.084213 
	C297.067596,157.257645 304.405518,155.743393 311.309967,149.830032 
z"/>
<path fill="#000000" opacity="1.000000" stroke="none" 
	d="
M317.164551,55.430885 
	C331.840424,61.041882 342.750549,77.974541 340.293671,90.915436 
	C337.979675,91.818939 337.102570,89.775330 335.856873,88.639473 
	C328.196747,81.654785 320.110657,75.285995 309.697144,73.074638 
	C301.631531,71.361862 301.581085,71.599480 303.730804,63.405724 
	C305.527435,56.557705 309.269012,54.236855 317.164551,55.430885 
M317.151917,70.985809 
	C318.234253,71.247040 319.396332,71.951042 320.172607,70.459229 
	C317.193817,66.811577 316.983978,66.746559 313.154999,68.305473 
	C313.594971,70.079422 315.263397,70.170952 317.151917,70.985809 
z"/>
<path fill="#000000" opacity="1.000000" stroke="none" 
	d="
M254.439331,134.015839 
	C250.315720,133.691483 250.262589,130.554108 249.869690,127.864555 
	C249.470871,125.134529 251.388306,123.546326 253.515228,122.465248 
	C256.442566,120.977310 259.217804,121.667580 260.934601,124.374001 
	C262.667358,127.105568 261.461426,129.440338 258.893463,131.130371 
	C257.508057,132.042130 256.128815,132.963211 254.439331,134.015839 
z"/>
<path fill="#000000" opacity="1.000000" stroke="none" 
	d="
M220.472931,127.297394 
	C219.650101,123.071983 222.086258,121.496315 225.245926,120.956764 
	C227.695251,120.538521 229.416412,122.103760 229.897781,124.458382 
	C230.552719,127.662140 229.338959,131.004883 226.687714,132.142715 
	C223.389236,133.558319 222.275269,129.733688 220.472931,127.297394 
z"/>
</svg>